<svg xmlns="http://www.w3.org/2000/svg" width="24" height="26" viewBox="0 0 24 26">
  <g id="Group_1" data-name="Group 1" transform="translate(0 1)">
    <g id="Ellipse_4" data-name="Ellipse 4" transform="translate(1 1)" fill="#41201a" stroke="#2e1713" stroke-width="1">
      <circle cx="11" cy="11" r="11" stroke="none"/>
      <circle cx="11" cy="11" r="10.5" fill="none"/>
    </g>
    <g id="Ellipse_3" data-name="Ellipse 3" fill="none" stroke="#ffdda7" stroke-width="1">
      <circle cx="12" cy="12" r="12" stroke="none"/>
      <circle cx="12" cy="12" r="11.5" fill="none"/>
    </g>
    <path id="Intersection_1" data-name="Intersection 1" d="M47.138,31.541l-2.412-2.674h-.149a.211.211,0,0,1-.2.157.221.221,0,0,1-.209-.232.224.224,0,0,1,.186-.231h.023a.2.2,0,0,1,.154.077h.277l.031.033,2.6,2.876Q47.287,31.546,47.138,31.541Zm-.654-.045-.617-.684h-.89l-.013-.013-3.915-4.34h-.721l-.011-.011-.207-.209h-.445l-.012-.013-.232-.257-.012-.013v-.017l-.011-.566V25.35l.016-.015.222-.187a.237.237,0,0,1-.027-.109.2.2,0,1,1,.2.225.181.181,0,0,1-.118-.046l-.209.178.012.523.206.228h.444l.012.013.207.207h.723l.013.014,3.916,4.339h.89l.012.013.667.738.013.015v.02Zm-.24-.028-.443-.491h-.891l-.011-.013-3.953-4.38h-.761l-.011-.013-.125-.138H39.5l-.011-.013-.326-.363a.149.149,0,0,1-.036.005.213.213,0,0,1-.2-.226.218.218,0,0,1,.177-.226h.02a.213.213,0,0,1,.2.226.238.238,0,0,1-.08.181l.291.323h.544l.011.013.123.138h.762l.013.014,3.952,4.379h.891l.012.013.529.586Zm1.887-.4a.361.361,0,1,1,.36.4A.381.381,0,0,1,48.131,31.066Zm-2.166.361-.236-.261h-.871l-.012-.014-3.92-4.343h-.74l-.012-.014L40,26.6h-.5l-.012-.014L39.2,26.27H38.96q-.06-.122-.117-.245l.137.152h.251l.012.013.287.32h.5l.011.013.177.2h.738l.013.013,3.92,4.344h.87l.012.013.325.36Zm3.116-.028-.013-.013V30.072l-2.68-2.97-.012-.013v-.274h0a.192.192,0,0,1-.084-.02l-.252.279-.011.013H42.579l-.012-.013-.8-.883H40.325l-.013-.014-.266-.294H40a.208.208,0,0,1-.2.18.213.213,0,0,1-.2-.226.219.219,0,0,1,.178-.226h.02a.208.208,0,0,1,.195.18h.08l.011.013.267.3h1.445l.012.013.8.883H45.99l.23-.255a.241.241,0,0,1-.057-.156.21.21,0,1,1,.419,0,.232.232,0,0,1-.122.21v.259l2.68,2.97.011.013v1.313l.039.043-.1.018Zm.206-.462-.017-.02V29.105L46.557,26.1a.207.207,0,0,1-.184.123.192.192,0,0,1-.11-.036l-.6.665-.018.02h-3l-.019-.02-.89-.986H40.693a.209.209,0,0,1-.2.2.213.213,0,0,1-.2-.226.218.218,0,0,1,.177-.226h.02a.193.193,0,0,1,.172.118h1.114l.019.02.89.986h2.9l.589-.653a.252.252,0,0,1-.019-.092.222.222,0,0,1,.21-.231.211.211,0,0,1,.2.16l2.805,3.108.019.02V30.86l.368.408-.146.035Zm.256-.093-.019-.02V28.889l-2.9-3.213h-.668l-.837.926-.018.022H43.343l-.018-.022-.466-.515a.177.177,0,0,1-.106.036.227.227,0,1,1,.2-.225.242.242,0,0,1-.014.082l.456.506h1.657l.836-.927.018-.02h.772l.018.02,2.937,3.254.019.021v1.934l.386.428-.141.038Zm.37-.15-.03-.035V28.388l-1.357-1.5a.18.18,0,0,1-.057.009.234.234,0,0,1,0-.465.224.224,0,0,1,.21.233.227.227,0,0,1-.007.06l1.387,1.536.03.033v2.273l.433.48q-.113.038-.227.074Zm-5.6.312-3.639-4.032h-.6l-.132-.04h-.447l-.012-.016-.329-.4h-.06l-.049-.092h.146l.013.016.326.4h.421l.138.04h.623l.011.015,3.762,4.168Zm6.05-.629-.012-.013V26.427l.012-.014.669-.742v-1l.012-.015.855-.948.012-.013h.833a.213.213,0,0,1,.2-.164.233.233,0,1,1-.209.256h-.79l-.831.922v1l-.012.013-.67.742v3.864l.51.565-.086.033Zm-6.516.45L40.571,27.2h-.523l-.009-.006-.173-.11h-.448l-.057-.092h.529L39.9,27l.172.109h.535l.013.013L44.03,30.9Zm6.973-.239-.011-.013V29.245l.011-.013.361-.4V25.871l.011-.015.612-.677v-.5a.232.232,0,0,1-.136-.216.211.211,0,1,1,.419,0,.222.222,0,0,1-.2.231v.525l-.011.015-.613.676v2.964l-.013.013-.36.4V30.54l.247.274-.085.035Zm-7.317.089-2.939-3.257h-.685l-.012-.013-.094-.1H39.56l-.061-.092h.307l.013.013.092.1H40.6l.011.015L43.7,30.767Zm7.527-.16-.012-.015V29.3l.012-.015.326-.359V25.964l.011-.014.981-1.085V24.7a.226.226,0,0,1-.176-.23.211.211,0,1,1,.419,0,.23.23,0,0,1-.161.227V24.9l-.011.013L51.436,26v2.965l-.013.013-.325.359v1.127l.237.263-.085.037Zm.187-.116-.012-.015V29.4l.012-.014.3-.337V26.1l.012-.013,1.606-1.781a.245.245,0,0,1-.034-.128.211.211,0,1,1,.209.232.193.193,0,0,1-.115-.039L51.6,26.137v2.952l-.013.015-.3.334v.911l.255.284-.083.039Zm.143-.1-.013-.013V29.51l.013-.014.334-.37V26.163l.013-.013,1.236-1.371.013-.013h.394l.3-.337V24.1l.012-.013.21-.233a.26.26,0,0,1-.022-.1.222.222,0,0,1,.209-.233h0a.233.233,0,0,1,0,.465.194.194,0,0,1-.138-.059l-.189.21v.327l-.013.013-.328.363-.012.015h-.4L51.775,26.2v2.963l-.012.015-.335.369v.7l.276.3-.083.041Zm-8.335.141L40.461,27.6H39.8l-.012-.014-.1-.114h-.012l-.063-.092h.11l.012.013.1.115h.658l.011.013,2.734,3.029Q43.131,30.5,43.023,30.442Zm8.755.045-.013-.015-.2-.226-.011-.013V29.62l.011-.013.341-.378V26.246l.013-.014,1.126-1.248.012-.013h.409l.445-.494a.244.244,0,0,1-.048-.146.211.211,0,1,1,.21.233.187.187,0,0,1-.1-.028l-.463.512-.012.014h-.41l-1.1,1.222v2.981l-.012.015-.341.376v.54l.181.2h.2l-.174.092Zm-3.871-.3a.21.21,0,1,1,.209.233A.221.221,0,0,1,47.908,30.192Zm-5.372-.027-2.162-2.4h-.486l-.068-.091h.59l.013.013,2.364,2.623C42.7,30.265,42.619,30.216,42.536,30.165Zm9.259-.311a.356.356,0,1,1,.355.392A.375.375,0,0,1,51.795,29.854Zm-9.713.016-1.733-1.916h-.317l-.072-.092h.424l.012.013,1.98,2.19Q42.227,29.97,42.082,29.87Zm9.987-.9-.012-.013v-2.58l.012-.013,1.065-1.18.011-.013h.636l.617-.683v-.89l-.213-.236a.2.2,0,0,1-.124.046.233.233,0,1,1,.21-.233.249.249,0,0,1-.031.117l.228.253.012.014v.965l-.012.013-.642.71-.011.014h-.638l-1.038,1.154v2.5l.808.9-.072.051Zm.16-.08-.012-.013V26.467l.012-.013.964-1.069.011-.013h.674l.739-.82V22.709l.012-.013.494-.548V19.607l-.314-.349-.013-.015V16l.083.1v3.106l.316.349.012.015v2.616l-.012.013-.494.547v1.846l-.013.015-.763.845-.011.013h-.674L52.3,26.505v2.329l.789.875-.071.051Zm.171-.1-.011-.013v-2.21l.011-.014.911-1.009.011-.013h.648l.836-.926V22.784l.012-.013.492-.548V19.535l-.316-.352-.012-.013V16.23l.083.108v2.795l.317.351.012.013v2.767l-.012.013-.492.546v1.823l-.013.015-.859.951L54,25.624h-.648l-.885.983v2.133l.771.855-.07.053Zm-11.171.416-.942-1.043H40.2l-.077-.092h.2l.011.015,1.344,1.489Q41.447,29.4,41.229,29.207Zm11.53-.46-.061-.068V26.566l.061-.068.615-.681.062-.068h.588l.882-.976.06-.068h1l.2-.226V18.216a9.426,9.426,0,0,1,.416,1.132V24.67l-.062.066L56.2,25.1l-.059.067h-1l-.881.977-.06.068h-.59l-.493.546V28.49l.627.7q-.164.144-.334.28Zm-6.457.234a.254.254,0,0,1,.025-.107l-.249-.2-.025-.02v-.033l-.007-.25-.125-.138H43.785l-.146.161a.25.25,0,0,1,.028.116.211.211,0,1,1-.419,0,.223.223,0,0,1,.21-.233.189.189,0,0,1,.088.023l.167-.185.018-.021h2.239l.018.021.16.176.016.019v.028l.008.243.242.2a.2.2,0,0,1,.094-.025.232.232,0,1,1-.209.231Zm7.029-.488-.031-.033V26.887l.031-.035.216-.239a.255.255,0,0,1,0-.042.225.225,0,0,1,.187-.231h.022a.233.233,0,0,1,0,.463.188.188,0,0,1-.071-.015l-.174.193v1.381l.512.568q-.079.075-.16.148Zm-2.767.193a.21.21,0,1,1,.418,0,.21.21,0,1,1-.418,0Zm3.47-.193a.19.19,0,0,1-.1.032.233.233,0,1,1,.209-.232.259.259,0,0,1-.021.1l.208.23h0l-.092.095ZM46.3,28.4a.269.269,0,0,1,.013-.082l-.323-.36H43.666a.22.22,0,0,1-.207.212.233.233,0,0,1,0-.465.206.206,0,0,1,.181.115h2.4l.019.02.33.368a.192.192,0,0,1,.119-.041.234.234,0,1,1-.209.232Zm7.976-.129a.222.222,0,0,1,.209-.233.206.206,0,0,1,.18.117h.081q-.147.175-.3.343A.226.226,0,0,1,54.279,28.271Zm-11.544-.4a.226.226,0,0,1,.189-.232h.02a.233.233,0,1,1-.209.232ZM46.3,27.83a.21.21,0,1,1,.209.231A.221.221,0,0,1,46.3,27.83Zm8.53-.633.018-.02.31-.343.02-.02h.512l-.081.138h-.38l-.274.3V27.9q-.061.078-.124.155Zm-4.3.349a.211.211,0,1,1,.209.231A.221.221,0,0,1,50.532,27.545Zm4.527-.3.019-.02.143-.158.019-.02h.313l-.087.138h-.174l-.107.118V27.6q-.062.085-.125.169Zm-1.338.2a.234.234,0,0,1,.139-.22l.883-.966.019-.02H56l-.069.138H54.813l-.787.862a.236.236,0,0,1,.114.206.21.21,0,1,1-.418,0Zm.557-.025a.223.223,0,0,1,.189-.23V26.96l.019-.02.413-.457.018-.02h.97l-.074.138h-.843l-.376.416v.2a.238.238,0,0,1,.1.2.21.21,0,1,1-.418,0ZM43.6,26.393l-.018-.022-.235-.259a.174.174,0,0,1-.062.011.227.227,0,1,1,.2-.225.248.248,0,0,1-.036.129l.205.227h.537l.93-1.031.019-.02h2.691l.018.02.529.585a.187.187,0,0,1,.09-.024.233.233,0,1,1-.209.231.255.255,0,0,1,.028-.112l-.507-.562H45.193l-.93,1.029-.018.022Zm.062-.479a.213.213,0,0,1,.2-.226.171.171,0,0,1,.091.028l.81-.9.013-.013H47.95l.013.013.976,1.084h1.43l.416-.462v-.859l.013-.013L51.947,23.3l.013-.013h1.4l1.559-1.728V19.662l-.319-.356-.012-.013V15.752l.083.1v3.409l.319.352.012.014v1.971l-.012.013L53.4,23.36l-.012.014h-1.4l-1.126,1.249v.856l-.012.013-.442.491-.012.013h-1.5l-.013-.013L47.916,24.9H44.811l-.791.878a.242.242,0,0,1,.043.138.2.2,0,1,1-.4,0Zm11.386-.2a.356.356,0,1,1,.354.392A.373.373,0,0,1,55.053,25.712Zm-16.321.062v-.251l.013-.013.266-.294a.238.238,0,0,1-.077-.177.2.2,0,1,1,.2.224.161.161,0,0,1-.042-.005l-.274.3v.4Q38.772,25.868,38.731,25.773Zm10.255.09-.012-.013-.98-1.087H44.331l-.353.389a.242.242,0,0,1,.042.138.2.2,0,1,1-.2-.226.172.172,0,0,1,.093.029l.368-.409.012-.013h3.734l.011.013.981,1.087h1.265l.353-.392V24.46l.012-.013,1.184-1.311.011-.013h1.437l1.478-1.637v-1.71l-.3-.326-.013-.015V15.607l.083.09v3.7l.3.327.013.013v1.788l-.013.013-1.5,1.664-.013.013H51.88L50.723,24.5v.919l-.013.013-.378.421-.013.013Zm.161-.215-.012-.013-.991-1.1h-4.15l-.512.569a.207.207,0,0,1,0,.043.2.2,0,1,1-.2-.226.188.188,0,0,1,.156.09l.5-.555.011-.013h4.217l.012.013.993,1.1h1.006l.283-.313v-.886l.012-.013,1.238-1.374.013-.014h1.454L54.595,21.4V19.874l-.34-.376-.011-.014v-4.1l.083.085v3.973l.34.377.012.013v1.6l-.012.013-1.432,1.587-.011.013H51.769L50.555,24.4v.887l-.013.013-.306.34-.012.013ZM38.57,25.371l.113-.126v-.474l.02-.013.2-.128.01-.007H40.22l.011.015.181.2a.176.176,0,0,1,.087-.025.228.228,0,1,1-.2.226.245.245,0,0,1,.046-.144l-.162-.18H38.936l-.171.109v.46l-.011.013-.124.138v.093C38.61,25.475,38.59,25.423,38.57,25.371Zm10.848.1-.013-.013-.124-.138-.012-.014v-.867l-.081-.09H43.475l-.934,1.035-.011.013H41.351l-.013-.013-.967-1.073h-.413a.208.208,0,0,1-.195.194.228.228,0,0,1,0-.451.2.2,0,0,1,.189.165h.454l.013.015.967,1.07H42.5l.932-1.032.013-.015h5.781l.013.015.1.116.012.013v.869l.1.11H50.1l.207-.229V24.28l.013-.013,1.343-1.49.013-.013H53.1l1.331-1.475V19.973L54.1,19.6l-.013-.014V15.232l.083.081v4.233l.336.375.013.013v1.394l-.013.015-1.353,1.5-.013.014H51.715l-1.321,1.463v.864l-.011.013-.23.257-.013.013Zm.1-.187-.012-.015-.117-.149-.01-.013V24.28l-.116-.113h-5.94l-.884.98-.013.015h-.487l-.012-.015-.605-.67a.2.2,0,0,1-.051.008.228.228,0,1,1,.2-.225.239.239,0,0,1-.07.172l.576.638h.416l.885-.982.013-.013h6.005l.011.013.141.138.015.013v.83l.093.12h.419l.117-.129V24.2l.012-.014,1.444-1.6.012-.014h1.483l1.19-1.321V20.1l-.33-.366-.012-.014V15.045l.083.077v4.56l.332.365.011.013v1.225L54.3,21.3l-1.216,1.347-.013.013H51.593l-1.419,1.574V25.1l-.013.013-.141.157-.012.013ZM38.475,25.1v-.892l.011-.015.483-.534.013-.013H41.51l.012.013.352.391a.177.177,0,0,1,.1-.036.228.228,0,1,1-.2.226.248.248,0,0,1,.033-.125l-.338-.377H39.014l-.456.506v.992l-.007.01-.015.029C38.515,25.219,38.495,25.161,38.475,25.1Zm11.138-.274a.229.229,0,0,1,.158-.224v-.441l-.19-.211H43.191l-.677.748-.011.014h-.688L41.8,24.7l-.247-.273-.013-.013V24.1l-.179-.2H39.448l-.229.254a.246.246,0,0,1,.039.137.2.2,0,1,1-.4,0,.219.219,0,0,1,.178-.226h.02a.178.178,0,0,1,.094.029l.246-.273.012-.013H41.4l.011.013.2.225.012.013v.317l.224.247h.617l.676-.748.013-.014h6.459l.011.014.214.237.013.013V24.6a.223.223,0,0,1,.177.228.21.21,0,1,1-.419,0Zm-.862-.006a.21.21,0,1,1,.21.233A.221.221,0,0,1,48.75,24.823Zm6.27-.3v-.873h.787v.873Zm-16.8-.312.674-.747.011-.013h4.749l.011.013.178.2h6.514l1.155-1.283.013-.013H53l1.091-1.209v-.967l-.35-.39-.012-.013V14.9l.083.074v4.779l.35.387.012.014V21.2l-.012.013-1.115,1.235-.012.015H51.56L50.4,23.743l-.013.013H43.811l-.013-.013-.176-.2H38.939l-.694.77Zm-.06-.277.609-.675.013-.013h3.8l.671-.745a.25.25,0,0,1-.03-.121.2.2,0,1,1,.2.226.181.181,0,0,1-.109-.039h0l-.681.756-.013.014h-3.8l-.633.7C38.175,24.008,38.168,23.972,38.161,23.937Zm-.088-.509a.221.221,0,0,1,.156.221.235.235,0,0,1-.088.187C38.115,23.7,38.092,23.565,38.072,23.428Zm7.166.171-.011-.013-.606-.67h-.338l-.011-.013-.079-.088h-.129a.2.2,0,0,1-.187.156.228.228,0,0,1,0-.452.21.21,0,0,1,.2.2h.153l.012.013.079.088h.338l.013.015.6.669h4.98l1.192-1.321.011-.013h1.482l.969-1.073v-.838l-.318-.352-.013-.013V14.771l.083.071v5.017l.32.354.011.013v.912l-.011.013-.993,1.1-.013.013H51.492L50.3,23.585l-.011.013Zm-1.018-.326a.2.2,0,1,1,.2.226A.212.212,0,0,1,44.22,23.273Zm1.517.106-.013-.013-1.407-1.56H43.144l-1.207,1.336-.012.015H38.692l-.013-.015-.193-.213a.19.19,0,0,1-.144.071.212.212,0,0,1-.2-.225.218.218,0,0,1,.178-.226h.019a.213.213,0,0,1,.2.226.269.269,0,0,1-.01.07l.2.22H41.89L43.1,21.726l.013-.013H44.35l.013.013,1.409,1.562H50.2l1.17-1.3.013-.013h1.291l.82-.909a.245.245,0,0,1-.042-.138.2.2,0,1,1,.2.226.177.177,0,0,1-.093-.028l-.837.928-.011.013H51.419l-1.17,1.3-.013.013Zm.073-.219-.013-.013-1.538-1.707h-.3a.207.207,0,0,1-.195.2.227.227,0,0,1,0-.45.2.2,0,0,1,.189.16h.335l.013.013,1.54,1.707H50.1l1.14-1.264.012-.013H52.6l.209-.231v-.547L52.818,21l.124-.137a.242.242,0,0,1-.025-.1.218.218,0,0,1,.178-.225h.021a.228.228,0,0,1,0,.451.186.186,0,0,1-.123-.049l-.1.116V21.6l-.011.013-.233.259-.012.013H51.287l-1.141,1.264-.012.013Zm-7.825-.64.145-.16.013-.015h.409l.01.007.172.109.021.013v.27l.083.094h2.92l1.306-1.449a.254.254,0,0,1-.013-.083.2.2,0,1,1,.2.226.186.186,0,0,1-.136-.064L41.8,22.917l-.012.013H38.8l-.013-.013-.109-.12-.011-.015v-.253l-.143-.092h-.352l-.138.152v.525l-.006.006C38.01,22.922,37.994,22.721,37.984,22.52Zm8.615.465-.012-.013-1.622-1.8h-.888l-.012-.015-.224-.245a.18.18,0,0,1-.128.056.228.228,0,1,1,.2-.226.252.252,0,0,1-.018.1l.219.242H45l.013.013,1.622,1.8H50l1.171-1.3.012-.013h1.129l.018-.022a.243.243,0,0,1-.058-.16.2.2,0,1,1,.2.225.175.175,0,0,1-.068-.014l-.044.049-.013.013H51.216l-1.172,1.3-.012.013Zm-7.016-.4a.25.25,0,0,1,.032-.123l-.186-.207H38.98l-.019-.02-.237-.262h-.751c0-.046,0-.092,0-.138h.8l.018.02.236.261h.452l.018.022.213.236a.175.175,0,0,1,.068-.014.228.228,0,1,1-.2.225Zm-.706,0a.247.247,0,0,1,.049-.148l-.193-.214h-.651l-.1.116q0-.063,0-.127l.062-.069.011-.013h.721l.012.013.213.236a.176.176,0,0,1,.081-.019.228.228,0,1,1-.2.225Zm1.424-.031a.244.244,0,0,1,.038-.132l-.183-.2h-.417l-.017-.02-.19-.21h-.539l-.019-.02-.254-.282h-.74c0-.046,0-.092.006-.138h.785l.019.02.255.282h.539l.019.02.19.21h.414l.019.02.216.239a.164.164,0,0,1,.058-.01.228.228,0,1,1-.2.226Zm16.646-1.193q.024.341.025.687t-.025.687Zm-9.826,1.36-.012-.015-2.1-2.323h-1.55l-1.444,1.6L42.008,22H40l-.011-.014-.227-.25h-.622l-.011-.015-.485-.537-.013-.013v-.321l-.329-.366-.013-.013V19.6q.039-.148.083-.294v1.121l.33.365.012.015v.319l.462.511H39.8l.013.013.224.25h1.938l1.442-1.6.013-.015h1.62l.011.015,2.1,2.323h2.8l.795-.882v-.729L50.764,21l.208-.23.012-.013h.635l.011.013.23.255a.18.18,0,0,1,.114-.042.228.228,0,1,1-.2.226.242.242,0,0,1,.028-.114l-.221-.245h-.567l-.184.2v.728l-.011.015L50,22.706l-.012.015Zm-2.872-.276a.2.2,0,1,1,.2.226A.213.213,0,0,1,44.249,22.445Zm5-.11a.212.212,0,0,1,.2-.225.2.2,0,0,1,.184.149h.312l.542-.6V21.2l-2.523-2.795h-5.2l-1.294,1.409a.059.059,0,0,1-.05.025.06.06,0,0,1-.048-.028H41l-.013-.013-.19-.213h-.567l-.251.279-.013.013h-.552l-.2.226a.239.239,0,0,1,.017.09.2.2,0,1,1-.2-.226.187.187,0,0,1,.132.059l.2-.227.011-.014h.555l.252-.279L40.2,19.5h.633l.012.013.193.213h.343l0,0,1.31-1.431.018-.019h5.3l.017.02L50.6,21.124l.018.02v.574l-.018.021-.579.639L50,22.4H49.64a.2.2,0,0,1-.19.164A.213.213,0,0,1,49.254,22.335Zm-1.668-.413-.019-.02-.139-.154h0a.174.174,0,0,1-.076.017.228.228,0,1,1,.2-.225.255.255,0,0,1-.028.114l.117.129h1.8l.207-.229V21.2l-1.96-2.173H42.95L41.7,20.42l-.019.022h-.949l-.018-.022-.061-.066a.192.192,0,0,1-.164.1.228.228,0,0,1,0-.451.207.207,0,0,1,.195.191l.1.111h.846l1.253-1.391.019-.02h4.839l.019.02,2,2.212.019.02v.468l-.019.02-.242.271-.018.02Zm-7.479-.145-.018-.021-.245-.27h-.471l-.018-.02-.216-.239a.181.181,0,0,1-.106.037.228.228,0,1,1,.2-.226.25.25,0,0,1-.013.079l.207.23H39.9l.019.019.244.271h1.756l1.43-1.585.019-.02h2.893l.019.02.288.321a.176.176,0,0,1,.068-.015.228.228,0,1,1-.2.226.255.255,0,0,1,.032-.124l-.262-.29H43.415l-1.431,1.584-.017.021Zm6.424-.237a.214.214,0,0,1,.2-.226.169.169,0,0,1,.051.008l.209-.169.015-1.312-.19-.239h-3.64L41.84,21.081l-.018.02H40.678a.2.2,0,0,1-.179.135.229.229,0,0,1,0-.453.207.207,0,0,1,.194.181H41.77l1.335-1.48.019-.019h3.747l.018.023.226.281.016.02v.026l-.013,1.376v.035l-.025.02-.2.161a.242.242,0,0,1,.039.134.2.2,0,1,1-.4,0Zm3.4-.033a.23.23,0,0,1,.122-.208v-.068L47.776,18.71H42.905l-1.291,1.431-.018.02h-.668l-.018-.02-.268-.3h-.281l-.439.487-.013-.014a.194.194,0,0,1-.172.119.227.227,0,0,1,0-.45.2.2,0,0,1,.185.151l.37-.41.018-.02h.383l.018.02.268.3h.565l1.291-1.432.019-.02h4.972l.019.02,2.313,2.564.019.02v.114a.222.222,0,0,1,.149.219.2.2,0,1,1-.4,0Zm-.859-.093a.231.231,0,0,1,.108-.2l-.01-.125-1.59-1.761h-4.55l-1.259,1.392-.018.021h-.871v-.021l-.062-.039H38.882l-.019-.019-.21-.227-.02-.021V18.563q.06-.152.125-.3v2.1l.174.187h1.919l.015.01.078.048H41.7l1.256-1.393.018-.02h4.655l.018.02,1.625,1.8.016.019,0,.024.011.138a.22.22,0,0,1,.163.223.2.2,0,1,1-.395,0Zm-.761-.062a.218.218,0,0,1,.176-.226h.021a.228.228,0,1,1-.2.226ZM51,21.228A.218.218,0,0,1,51.178,21H51.2a.228.228,0,1,1-.2.226Zm-10.725.2-.018-.02-.282-.312a.2.2,0,0,1-.182.138.229.229,0,0,1,0-.453.2.2,0,0,1,.178.131l.007-.007.349.387h1.483L43.2,19.757l.018-.02H46.66V19.8a.228.228,0,1,1-.2.226.244.244,0,0,1,.051-.15H43.267L41.882,21.41l-.018.02Zm-2.267-.212q.013-.151.031-.3a.183.183,0,0,1,.13-.057.228.228,0,0,1,0,.452A.19.19,0,0,1,38.009,21.218Zm8.114-.163a.2.2,0,1,1,.2.225A.213.213,0,0,1,46.123,21.056Zm-2.045-.3a.218.218,0,0,1,.178-.225h.02a.227.227,0,1,1-.2.225Zm9.241-.416h-.391l-.019-.019-.906-1h-2.27l-.018-.02-1.491-1.65H48a.2.2,0,1,1-.2-.242.2.2,0,0,1,.167.1h.31l.018.021,1.489,1.649h2.271l.019.022.9,1h.348a.2.2,0,0,1,.183-.14.228.228,0,0,1,0,.451A.205.205,0,0,1,53.319,20.343Zm-2.652-.12H49.95l-.019-.02-1.86-2.062H42.52l-1.077,1.193a.261.261,0,0,1,.014.081.2.2,0,1,1-.2-.226.177.177,0,0,1,.1.036l1.084-1.2.019-.02h5.656l.019.02L50,20.085h.682a.2.2,0,0,1,.177-.131.228.228,0,0,1,0,.453A.205.205,0,0,1,50.667,20.223Zm-11.073-.87a.219.219,0,0,1,.178-.226h.021a.183.183,0,0,1,.112.04h.877l.413-.457.018-.02h.3l.846-.935.018-.022h3.2l1.73-1.918.018-.02h.967l.019.02.207.229h1.274l.666-.739.018-.02h.37a.194.194,0,0,1,.169-.111.228.228,0,0,1,0,.451.208.208,0,0,1-.194-.2h-.293l-.667.739-.018.02H48.463l-.018-.02-.205-.229h-.865l-1.731,1.918-.018.02h-3.2l-.846.938-.018.02h-.3l-.413.456-.019.02h-.847a.247.247,0,0,1,0,.048.2.2,0,1,1-.4,0Zm.607-.3-.013-.013-.167-.185h-.778l-.012-.013-.1-.112a.185.185,0,0,1-.14.066.227.227,0,1,1,.2-.225.249.249,0,0,1-.013.078l.1.114h.779l.012.014.167.184h.386l.473-.525.013-.014h.354l.79-.876.013-.015h3.145l1.882-2.087.013-.013h1.283a.186.186,0,0,1,.144-.071.2.2,0,0,1,.193.181h.353l1.366-1.514.011-.013h1.889l.142.091h-2l-1.366,1.515-.011.013h-.388a.205.205,0,0,1-.193.179.213.213,0,0,1-.2-.227.276.276,0,0,1,.007-.062h-1.2l-1.882,2.087-.012.013H42.3l-.792.876-.012.013h-.352l-.474.525-.012.013Zm.091-.41a.22.22,0,0,1,.209-.231.193.193,0,0,1,.047.005l.138-.152.012-.014h.627l.827-.917.011-.013h3.085l1.972-2.185.012-.015h1.8l1.777-1.969.087.033L49.075,15.2l-.013.013h-1.8L45.293,17.4l-.012.015H42.2l-.826.916-.013.013h-.625l-.106.117a.239.239,0,0,1,.083.184.21.21,0,1,1-.418,0Zm12.487-.181a.2.2,0,1,1,.2.225A.213.213,0,0,1,52.778,18.462ZM39.59,18.6l-.018-.022-.519-.574a.186.186,0,0,1-.126-.114q.069-.142.143-.281l.024,0a.192.192,0,0,1,.183.2.207.207,0,0,1-.077.163l.442.49H40l.4-.446.018-.02h.772l.822-.911.018-.02h3.107L47.1,14.9l.018-.021H48.7l.848-.94a.246.246,0,0,1-.028-.11.21.21,0,1,1,.209.231.19.19,0,0,1-.091-.024l-.868.962-.019.019H47.167l-1.961,2.173-.018.02H42.083l-.822.911-.019.02H40.47l-.4.444-.018.022Zm10.988-.36a.2.2,0,1,1,.2.225A.214.214,0,0,1,50.578,18.244Zm-11,.019-.011-.013-.2-.214-.011-.014v-.8l-.045-.051.047-.077.069.076.012.015v.8l.169.187h.3l.382-.426.013-.013h.794l.793-.878.013-.013h3.163l2-2.217.012-.013H48.4L49.6,13.27l.013-.014h.245a.218.218,0,0,1,.182-.184h.022a.233.233,0,0,1,0,.463.216.216,0,0,1-.205-.187h-.21l-1.209,1.342-.013.013H47.123l-2,2.216-.011.015H41.944l-.792.877-.011.015h-.795l-.384.425-.011.013Zm.08-.456a.191.191,0,0,1,.181-.2.217.217,0,0,1,.03,0l.165-.182.024-.028h.964l.784-.868.024-.028h3.027l1.97-2.184.024-.028h1.476l1.342-1.486q.291.069.575.156h-.481l-1.343,1.489-.025.027H46.923L44.951,16.66l-.023.028H41.9l-.785.87-.023.026H40.13l-.124.138a.227.227,0,0,1,.018.085.182.182,0,1,1-.363,0Zm8.986-.109a.218.218,0,0,1,.176-.226h.021a.2.2,0,0,1,.179.134H51l.376-.417.019-.02h1.671a.194.194,0,0,1,.172-.119.227.227,0,0,1,0,.45.206.206,0,0,1-.194-.193h-1.6l-.375.417-.019.02H49.036a.2.2,0,0,1-.193.18A.213.213,0,0,1,48.647,17.7Zm6.588-.24a.425.425,0,0,1,.306-.424q.21.337.392.692a.38.38,0,0,1-.308.165A.412.412,0,0,1,55.235,17.457Zm-4.658-.34a.2.2,0,1,1,.2.227A.214.214,0,0,1,50.577,17.118Zm-10.718.164a.08.08,0,0,1-.066-.036.2.2,0,0,1-.132-.195.181.181,0,1,1,.358.047h.892l.743-.824.024-.028h2.975l2.033-2.254.025-.028h1.375l1.131-1.252.2.039-1.235,1.37-.025.028H46.781L44.745,16.4l-.023.026H41.748L41,17.254l-.025.028Zm.32-.3-.011-.013-.414-.46.052-.071.408.451H40.8l.787-.871L41.6,16h2.007L46.7,12.583l.127-.009-3.169,3.511-.012.013H41.638l-.787.873-.012.013Zm12.865-.3a.2.2,0,1,1,.2.226A.213.213,0,0,1,53.045,16.68Zm-12.777.11-.012-.013-.385-.427.054-.071.377.418h.407l.742-.822.012-.015h2.1L46.5,12.6l.128-.012L43.6,15.94l-.013.013H41.5l-.743.824-.013.013Zm.08-.158-.012-.015-.22-.244-.013-.013v-.3l.083-.1v.367l.2.219h.251l.784-.868.013-.015h2.033l2.725-3.02.133-.017-2.812,3.116-.013.013h-2.03l-.785.868-.011.015Zm6.986-.232a.218.218,0,0,1,.176-.226h.022a.2.2,0,0,1,.182.141h3.268l1.341-1.487.012-.013h.682a.213.213,0,0,1,.2-.155.233.233,0,1,1-.209.247h-.638L51.028,16.4l-.011.013H47.729a.2.2,0,1,1-.395-.007Zm-6.995-.243a.192.192,0,0,1,.183-.2.172.172,0,0,1,.125.056l.53-.588.013-.015H43.37l2.451-2.716.14-.023L43.417,15.49,43.4,15.5H41.224l-.531.589a.216.216,0,0,1,.01.066.183.183,0,1,1-.364,0Zm10.336-.164a.2.2,0,1,1,.2.225A.214.214,0,0,1,50.676,15.994Zm-10.316-.17-.013-.013-.019-.021.058-.066.007.008h.316l.433-.482.013-.013H43.3l2.247-2.49.143-.028-2.342,2.6-.012.015H41.189l-.435.481-.013.013ZM40.5,15.6q.1-.109.206-.215c0,.005,0,.011,0,.017a.191.191,0,0,1-.181.2Zm.412-.419.1-.092H43.07l2.019-2.237.151-.038-2.124,2.353-.012.013Zm9.632-.348a.211.211,0,1,1,.21.231A.222.222,0,0,1,50.541,14.834Zm-9.385.12q.131-.117.267-.229h1.485l1.508-1.672q.2-.069.408-.128l-1.8,2-.03.034Zm.556-.459q.123-.094.249-.184h.834l.874-.969c.123-.054.247-.105.373-.154l-1.156,1.281-.025.025Zm.338-.247.135-.092H42.5l.385-.426q.113-.062.228-.122l-.566.627-.011.013Z" transform="translate(-35.472 -10.047)" fill="#edcb91"/>
    <g id="Ellipse_2" data-name="Ellipse 2" transform="translate(2 2)" fill="none" stroke="#edcb91" stroke-width="1" stroke-dasharray="3">
      <circle cx="10" cy="10" r="10" stroke="none"/>
      <circle cx="10" cy="10" r="9.5" fill="none"/>
    </g>
    <text id="C" transform="translate(6 18)" fill="#41201a" font-size="20" font-family="Rajdhani-Bold, Rajdhani" font-weight="700"><tspan x="0" y="0">C</tspan></text>
  </g>
</svg>
