<svg xmlns="http://www.w3.org/2000/svg"  width="2vw" height="2vw" viewBox="0 0 30.927 46.206">
  <path id="Path_7" data-name="Path 7" d="M52.1,36.134V36.1L47.3,14.15a.726.726,0,0,0-.144-.289L37.228.289a.722.722,0,0,0-1.155,0L26.145,13.862A.726.726,0,0,0,26,14.15L21.2,36.1v.325c0,.036.036.108.036.144a.642.642,0,0,0,.253.289h.036L36.253,46.1a.728.728,0,0,0,.4.108.823.823,0,0,0,.4-.108l14.728-9.241h.036a.973.973,0,0,0,.253-.289.217.217,0,0,0,.036-.144.4.4,0,0,0,0-.289Zm-2.419-4.4-5.054-8.916,1.841-5.776ZM37.372,2.924l8.411,11.515-2.13,6.714L37.372,10.035ZM36.65,11.7l6.425,11.3L39.1,35.521H34.231L30.261,22.995Zm-.722-8.772v7.111L29.647,21.117l-2.13-6.678Zm-9.1,14.15,1.841,5.776-5.054,8.916Zm2.455,7.653,3.429,10.829H23.149ZM24.413,36.964h8.772l2.166,6.859ZM36.65,43.137,34.7,36.964h3.935Zm1.3.686,2.166-6.859h8.772L37.95,43.823Zm2.635-8.3,3.429-10.829,6.137,10.829Z" transform="translate(-21.2)" />
</svg>
