<svg id="Page-1" xmlns="http://www.w3.org/2000/svg" viewBox="0 0 28.01 45.697">
  <g id="crypto" transform="translate(0 0)">
    <g id="Etherium-Classic" transform="translate(0 0)">
      <g id="Group" transform="translate(0 0)">
        <path id="Shape" d="M19.6,14.083V.8L33.605,21.519Z" transform="translate(-5.595 -0.8)"  />
        <path id="Shape-2" data-name="Shape" d="M19.6,42.836V56.119L33.605,35.4Z" transform="translate(-5.595 -10.422)"  />
        <path id="Shape-3" data-name="Shape" d="M19.6,30.946V22.5l13.716,7.219Z" transform="translate(-5.595 -6.835)"  />
        <path id="Shape-4" data-name="Shape" d="M19.6,39.864V33.727L33.316,32.5Z" transform="translate(-5.595 -9.615)"  />
        <path id="Shape-5" data-name="Shape" d="M14.205,14.083V.8L.2,21.519Z" transform="translate(-0.2 -0.8)"  />
        <path id="Shape-6" data-name="Shape" d="M14.205,42.836V56.119L.2,35.4Z" transform="translate(-0.2 -10.422)"  />
        <path id="Shape-7" data-name="Shape" d="M14.316,30.946V22.5L.6,29.719Z" transform="translate(-0.311 -6.835)"  />
        <path id="Shape-8" data-name="Shape" d="M14.316,39.864V33.727L.6,32.5Z" transform="translate(-0.311 -9.615)"  />
      </g>
    </g>
  </g>
</svg>
