<svg xmlns="http://www.w3.org/2000/svg" width="2vw" height="2vw" viewBox="0 0 54.48 54.48">
  <path id="Github" d="M35.192,8A27.405,27.405,0,0,0,8.339,31.456,28,28,0,0,0,26.609,62.425c1.359.256,1.857-.6,1.857-1.35V56.422c-7.564,1.675-9.058-3.746-9.058-3.746a7.451,7.451,0,0,0-3.012-4.1c-2.468-1.722.181-1.7.181-1.7a5.773,5.773,0,0,1,4.167,2.885,5.829,5.829,0,0,0,3.481,2.852,5.66,5.66,0,0,0,4.422-.525,6.1,6.1,0,0,1,1.721-3.746c-6.024-.7-12.387-3.095-12.387-13.8a10.941,10.941,0,0,1,2.808-7.493,10.213,10.213,0,0,1,.136-7.423S23.19,18.867,28.4,22.5a24.665,24.665,0,0,1,13.587,0c5.208-3.676,7.473-2.862,7.473-2.862a10.213,10.213,0,0,1,.272,7.376A10.942,10.942,0,0,1,52.516,34.5c0,10.727-6.341,13.1-12.387,13.775a6.808,6.808,0,0,1,1.857,5.142v7.655c0,.931.476,1.606,1.857,1.35a28,28,0,0,0,18.266-31A27.4,27.4,0,0,0,35.192,8Z" transform="translate(-7.986 -8)" fill-rule="evenodd"/>
</svg>
