<svg xmlns="http://www.w3.org/2000/svg" viewBox="0 0 31 31">
  <path id="Path_10" data-name="Path 10" d="M16,7a9,9,0,1,0,9,9A9.01,9.01,0,0,0,16,7Zm0,15a6,6,0,1,1,6-6A6.007,6.007,0,0,1,16,22ZM16,5.639a1.5,1.5,0,0,0,1.5-1.5V2a1.5,1.5,0,0,0-3,0V4.139A1.5,1.5,0,0,0,16,5.639ZM6.552,8.673A1.5,1.5,0,1,0,8.673,6.552L7.161,5.04A1.5,1.5,0,1,0,5.04,7.161ZM5.638,16a1.5,1.5,0,0,0-1.5-1.5H2a1.5,1.5,0,0,0,0,3H4.138A1.5,1.5,0,0,0,5.638,16Zm.914,7.327L5.04,24.839A1.5,1.5,0,1,0,7.161,26.96l1.512-1.512a1.5,1.5,0,1,0-2.121-2.121ZM16,26.361a1.5,1.5,0,0,0-1.5,1.5V30a1.5,1.5,0,0,0,3,0V27.861A1.5,1.5,0,0,0,16,26.361Zm9.448-3.034a1.5,1.5,0,1,0-2.121,2.121l1.512,1.512a1.5,1.5,0,1,0,2.121-2.121ZM30,14.5H27.861a1.5,1.5,0,0,0,0,3H30a1.5,1.5,0,0,0,0-3ZM24.388,9.112a1.5,1.5,0,0,0,1.061-.439L26.96,7.161A1.5,1.5,0,1,0,24.839,5.04L23.327,6.552a1.5,1.5,0,0,0,1.061,2.561Z" transform="translate(-0.5 -0.5)"/>
</svg>
